<mxfile host="Electron" modified="2023-08-17T07:10:13.401Z" agent="Mozilla/5.0 (Windows NT 10.0; Win64; x64) AppleWebKit/537.36 (KHTML, like Gecko) draw.io/21.6.5 Chrome/114.0.5735.243 Electron/25.3.1 Safari/537.36" etag="ITXL0sWqltUwgiKFlBNi" version="21.6.5" type="device">
  <diagram name="Page-1" id="q43t5NBVbCL899aClmEW">
    <mxGraphModel dx="1219" dy="713" grid="1" gridSize="10" guides="1" tooltips="1" connect="1" arrows="1" fold="1" page="1" pageScale="1" pageWidth="850" pageHeight="1100" math="0" shadow="0">
      <root>
        <mxCell id="0" />
        <mxCell id="1" parent="0" />
        <mxCell id="-PSau8nAt188wSu253ha-28" value="" style="rounded=0;whiteSpace=wrap;html=1;" parent="1" vertex="1">
          <mxGeometry x="110" y="170" width="600" height="770" as="geometry" />
        </mxCell>
        <mxCell id="-PSau8nAt188wSu253ha-1" style="rounded=0;orthogonalLoop=1;jettySize=auto;html=1;endArrow=none;endFill=0;" parent="1" source="aEcpFJmYFWradgYmW5tA-1" target="aEcpFJmYFWradgYmW5tA-5" edge="1">
          <mxGeometry relative="1" as="geometry" />
        </mxCell>
        <mxCell id="-PSau8nAt188wSu253ha-2" style="rounded=0;orthogonalLoop=1;jettySize=auto;html=1;endArrow=none;endFill=0;" parent="1" source="aEcpFJmYFWradgYmW5tA-1" target="aEcpFJmYFWradgYmW5tA-11" edge="1">
          <mxGeometry relative="1" as="geometry" />
        </mxCell>
        <mxCell id="-PSau8nAt188wSu253ha-3" style="rounded=0;orthogonalLoop=1;jettySize=auto;html=1;endArrow=none;endFill=0;" parent="1" source="aEcpFJmYFWradgYmW5tA-1" target="aEcpFJmYFWradgYmW5tA-7" edge="1">
          <mxGeometry relative="1" as="geometry" />
        </mxCell>
        <mxCell id="-PSau8nAt188wSu253ha-4" style="rounded=0;orthogonalLoop=1;jettySize=auto;html=1;endArrow=none;endFill=0;" parent="1" source="aEcpFJmYFWradgYmW5tA-1" target="aEcpFJmYFWradgYmW5tA-8" edge="1">
          <mxGeometry relative="1" as="geometry" />
        </mxCell>
        <mxCell id="-PSau8nAt188wSu253ha-9" style="rounded=0;orthogonalLoop=1;jettySize=auto;html=1;endArrow=none;endFill=0;" parent="1" source="aEcpFJmYFWradgYmW5tA-1" target="-PSau8nAt188wSu253ha-8" edge="1">
          <mxGeometry relative="1" as="geometry" />
        </mxCell>
        <mxCell id="aEcpFJmYFWradgYmW5tA-1" value="Guest" style="shape=umlActor;verticalLabelPosition=bottom;verticalAlign=top;html=1;outlineConnect=0;" parent="1" vertex="1">
          <mxGeometry x="30" y="590" width="50" height="90" as="geometry" />
        </mxCell>
        <mxCell id="-PSau8nAt188wSu253ha-5" style="rounded=0;orthogonalLoop=1;jettySize=auto;html=1;endArrow=none;endFill=0;" parent="1" source="aEcpFJmYFWradgYmW5tA-2" target="aEcpFJmYFWradgYmW5tA-9" edge="1">
          <mxGeometry relative="1" as="geometry" />
        </mxCell>
        <mxCell id="-PSau8nAt188wSu253ha-6" style="rounded=0;orthogonalLoop=1;jettySize=auto;html=1;endArrow=none;endFill=0;" parent="1" source="aEcpFJmYFWradgYmW5tA-2" target="aEcpFJmYFWradgYmW5tA-13" edge="1">
          <mxGeometry relative="1" as="geometry" />
        </mxCell>
        <mxCell id="-PSau8nAt188wSu253ha-10" style="rounded=0;orthogonalLoop=1;jettySize=auto;html=1;endArrow=none;endFill=0;" parent="1" source="aEcpFJmYFWradgYmW5tA-2" target="-PSau8nAt188wSu253ha-7" edge="1">
          <mxGeometry relative="1" as="geometry" />
        </mxCell>
        <mxCell id="-PSau8nAt188wSu253ha-25" style="rounded=0;orthogonalLoop=1;jettySize=auto;html=1;endArrow=none;endFill=0;" parent="1" source="aEcpFJmYFWradgYmW5tA-2" target="aEcpFJmYFWradgYmW5tA-7" edge="1">
          <mxGeometry relative="1" as="geometry" />
        </mxCell>
        <mxCell id="aEcpFJmYFWradgYmW5tA-2" value="Landlord" style="shape=umlActor;verticalLabelPosition=bottom;verticalAlign=top;html=1;outlineConnect=0;" parent="1" vertex="1">
          <mxGeometry x="30" y="240" width="50" height="90" as="geometry" />
        </mxCell>
        <mxCell id="-PSau8nAt188wSu253ha-16" style="rounded=0;orthogonalLoop=1;jettySize=auto;html=1;startArrow=open;startFill=0;endArrow=none;endFill=0;dashed=1;" parent="1" source="aEcpFJmYFWradgYmW5tA-5" target="aEcpFJmYFWradgYmW5tA-7" edge="1">
          <mxGeometry relative="1" as="geometry" />
        </mxCell>
        <mxCell id="-PSau8nAt188wSu253ha-17" value="include" style="edgeLabel;html=1;align=center;verticalAlign=middle;resizable=0;points=[];" parent="-PSau8nAt188wSu253ha-16" vertex="1" connectable="0">
          <mxGeometry x="0.0715" y="1" relative="1" as="geometry">
            <mxPoint as="offset" />
          </mxGeometry>
        </mxCell>
        <mxCell id="aEcpFJmYFWradgYmW5tA-5" value="Search locations" style="ellipse;whiteSpace=wrap;html=1;" parent="1" vertex="1">
          <mxGeometry x="240" y="555" width="120" height="60" as="geometry" />
        </mxCell>
        <mxCell id="-PSau8nAt188wSu253ha-18" style="rounded=0;orthogonalLoop=1;jettySize=auto;html=1;dashed=1;endArrow=open;endFill=0;" parent="1" source="aEcpFJmYFWradgYmW5tA-6" target="aEcpFJmYFWradgYmW5tA-8" edge="1">
          <mxGeometry relative="1" as="geometry" />
        </mxCell>
        <mxCell id="-PSau8nAt188wSu253ha-19" value="extend" style="edgeLabel;html=1;align=center;verticalAlign=middle;resizable=0;points=[];" parent="-PSau8nAt188wSu253ha-18" vertex="1" connectable="0">
          <mxGeometry x="0.1738" y="2" relative="1" as="geometry">
            <mxPoint x="15" as="offset" />
          </mxGeometry>
        </mxCell>
        <mxCell id="aEcpFJmYFWradgYmW5tA-6" value="Cancel reservation" style="ellipse;whiteSpace=wrap;html=1;" parent="1" vertex="1">
          <mxGeometry x="425" y="685" width="120" height="60" as="geometry" />
        </mxCell>
        <mxCell id="-PSau8nAt188wSu253ha-21" style="rounded=0;orthogonalLoop=1;jettySize=auto;html=1;dashed=1;endArrow=open;endFill=0;" parent="1" source="aEcpFJmYFWradgYmW5tA-7" target="aEcpFJmYFWradgYmW5tA-9" edge="1">
          <mxGeometry relative="1" as="geometry" />
        </mxCell>
        <mxCell id="-PSau8nAt188wSu253ha-22" value="include" style="edgeLabel;html=1;align=center;verticalAlign=middle;resizable=0;points=[];" parent="-PSau8nAt188wSu253ha-21" vertex="1" connectable="0">
          <mxGeometry x="0.0222" y="-2" relative="1" as="geometry">
            <mxPoint as="offset" />
          </mxGeometry>
        </mxCell>
        <mxCell id="-PSau8nAt188wSu253ha-23" style="rounded=0;orthogonalLoop=1;jettySize=auto;html=1;dashed=1;endArrow=open;endFill=0;" parent="1" source="aEcpFJmYFWradgYmW5tA-7" target="aEcpFJmYFWradgYmW5tA-13" edge="1">
          <mxGeometry relative="1" as="geometry">
            <Array as="points" />
          </mxGeometry>
        </mxCell>
        <mxCell id="-PSau8nAt188wSu253ha-24" value="include" style="edgeLabel;html=1;align=center;verticalAlign=middle;resizable=0;points=[];" parent="-PSau8nAt188wSu253ha-23" vertex="1" connectable="0">
          <mxGeometry x="0.0271" y="3" relative="1" as="geometry">
            <mxPoint x="3" as="offset" />
          </mxGeometry>
        </mxCell>
        <mxCell id="aEcpFJmYFWradgYmW5tA-7" value="Log in" style="ellipse;whiteSpace=wrap;html=1;" parent="1" vertex="1">
          <mxGeometry x="240" y="450" width="120" height="60" as="geometry" />
        </mxCell>
        <mxCell id="aEcpFJmYFWradgYmW5tA-8" value="Manage &lt;br&gt;reservation(s)" style="ellipse;whiteSpace=wrap;html=1;" parent="1" vertex="1">
          <mxGeometry x="220" y="710" width="120" height="60" as="geometry" />
        </mxCell>
        <mxCell id="aEcpFJmYFWradgYmW5tA-9" value="Create location" style="ellipse;whiteSpace=wrap;html=1;" parent="1" vertex="1">
          <mxGeometry x="330" y="250" width="120" height="60" as="geometry" />
        </mxCell>
        <mxCell id="aEcpFJmYFWradgYmW5tA-11" value="View location" style="ellipse;whiteSpace=wrap;html=1;" parent="1" vertex="1">
          <mxGeometry x="245" y="630" width="110" height="60" as="geometry" />
        </mxCell>
        <mxCell id="aEcpFJmYFWradgYmW5tA-13" value="Manage location(s)" style="ellipse;whiteSpace=wrap;html=1;" parent="1" vertex="1">
          <mxGeometry x="200" y="320" width="120" height="60" as="geometry" />
        </mxCell>
        <mxCell id="-PSau8nAt188wSu253ha-7" value="Create landlord" style="ellipse;whiteSpace=wrap;html=1;" parent="1" vertex="1">
          <mxGeometry x="190" y="190" width="120" height="60" as="geometry" />
        </mxCell>
        <mxCell id="-PSau8nAt188wSu253ha-8" value="Create user" style="ellipse;whiteSpace=wrap;html=1;" parent="1" vertex="1">
          <mxGeometry x="160" y="790" width="120" height="60" as="geometry" />
        </mxCell>
        <mxCell id="-PSau8nAt188wSu253ha-12" style="rounded=0;orthogonalLoop=1;jettySize=auto;html=1;dashed=1;endArrow=open;endFill=0;" parent="1" source="-PSau8nAt188wSu253ha-11" target="aEcpFJmYFWradgYmW5tA-11" edge="1">
          <mxGeometry relative="1" as="geometry" />
        </mxCell>
        <mxCell id="-PSau8nAt188wSu253ha-13" value="extend" style="edgeLabel;html=1;align=center;verticalAlign=middle;resizable=0;points=[];" parent="-PSau8nAt188wSu253ha-12" vertex="1" connectable="0">
          <mxGeometry x="-0.0207" relative="1" as="geometry">
            <mxPoint x="3" as="offset" />
          </mxGeometry>
        </mxCell>
        <mxCell id="-PSau8nAt188wSu253ha-14" style="rounded=0;orthogonalLoop=1;jettySize=auto;html=1;endArrow=none;endFill=0;dashed=1;startArrow=open;startFill=0;" parent="1" source="-PSau8nAt188wSu253ha-11" target="aEcpFJmYFWradgYmW5tA-7" edge="1">
          <mxGeometry relative="1" as="geometry" />
        </mxCell>
        <mxCell id="-PSau8nAt188wSu253ha-15" value="include" style="edgeLabel;html=1;align=center;verticalAlign=middle;resizable=0;points=[];" parent="-PSau8nAt188wSu253ha-14" vertex="1" connectable="0">
          <mxGeometry x="0.0294" y="1" relative="1" as="geometry">
            <mxPoint as="offset" />
          </mxGeometry>
        </mxCell>
        <mxCell id="-PSau8nAt188wSu253ha-31" style="rounded=0;orthogonalLoop=1;jettySize=auto;html=1;dashed=1;endArrow=open;endFill=0;" parent="1" source="-PSau8nAt188wSu253ha-11" target="-PSau8nAt188wSu253ha-32" edge="1">
          <mxGeometry relative="1" as="geometry">
            <mxPoint x="418.72963942968977" y="149.68077406094562" as="targetPoint" />
          </mxGeometry>
        </mxCell>
        <mxCell id="-PSau8nAt188wSu253ha-33" value="include" style="edgeLabel;html=1;align=center;verticalAlign=middle;resizable=0;points=[];" parent="-PSau8nAt188wSu253ha-31" vertex="1" connectable="0">
          <mxGeometry x="0.0063" y="1" relative="1" as="geometry">
            <mxPoint as="offset" />
          </mxGeometry>
        </mxCell>
        <mxCell id="-PSau8nAt188wSu253ha-11" value="Make reservation" style="ellipse;whiteSpace=wrap;html=1;" parent="1" vertex="1">
          <mxGeometry x="420" y="560" width="120" height="60" as="geometry" />
        </mxCell>
        <mxCell id="-PSau8nAt188wSu253ha-32" value="&amp;lt;&amp;lt;actor&amp;gt;&amp;gt;&lt;br&gt;MobilePay" style="html=1;whiteSpace=wrap;" parent="1" vertex="1">
          <mxGeometry x="730" y="635" width="110" height="50" as="geometry" />
        </mxCell>
        <mxCell id="meFT9aX54kap9FMEpev5-3" style="rounded=0;orthogonalLoop=1;jettySize=auto;html=1;dashed=1;endArrow=open;endFill=0;strokeColor=default;" edge="1" parent="1" source="meFT9aX54kap9FMEpev5-1" target="aEcpFJmYFWradgYmW5tA-8">
          <mxGeometry relative="1" as="geometry" />
        </mxCell>
        <mxCell id="meFT9aX54kap9FMEpev5-4" value="extend" style="edgeLabel;html=1;align=center;verticalAlign=middle;resizable=0;points=[];" vertex="1" connectable="0" parent="meFT9aX54kap9FMEpev5-3">
          <mxGeometry x="0.0046" y="-3" relative="1" as="geometry">
            <mxPoint x="-2" y="2" as="offset" />
          </mxGeometry>
        </mxCell>
        <mxCell id="meFT9aX54kap9FMEpev5-1" value="Rate location/room" style="ellipse;whiteSpace=wrap;html=1;" vertex="1" parent="1">
          <mxGeometry x="380" y="780" width="120" height="60" as="geometry" />
        </mxCell>
      </root>
    </mxGraphModel>
  </diagram>
</mxfile>
